<?xml version="1.0"?>
<svg xmlns="http://www.w3.org/2000/svg" xmlns:xlink="http://www.w3.org/1999/xlink" xmlns:svgjs="http://svgjs.com/svgjs" version="1.1" width="512" height="512" x="0" y="0" viewBox="0 0 512 512" style="enable-background:new 0 0 512 512" xml:space="preserve" class=""><g>
<path xmlns="http://www.w3.org/2000/svg" style="" d="M201.281,403.575c11.608,7.739,18.821,14.053,32.382,14.053h255.602l-3.736-46.633  c-4.956-59.125-54.391-104.59-113.723-104.59h-44.032c-46.758,0-84.663-37.905-84.663-84.663v-71.589H17.027v286.963h162.921  C187.541,397.116,194.964,399.364,201.281,403.575z" fill="#ab05ab" data-original="#a86d38" class=""/>
<g xmlns="http://www.w3.org/2000/svg">
	<rect x="17.03" y="110.15" style="" width="20.605" height="286.96" fill="#ab05ab" data-original="#995f30" class=""/>
	<path style="" d="M371.806,266.405h-32.774c-16.936,17.937-27.339,42.109-27.339,68.726v82.497h177.572l-3.736-46.633   C480.574,311.87,431.139,266.405,371.806,266.405z" fill="#ab05ab" data-original="#995f30" class=""/>
</g>
<path xmlns="http://www.w3.org/2000/svg" style="" d="M359.638,266.405h-20.605c-16.937,17.937-27.339,42.109-27.339,68.726v82.496h20.605v-82.496  C332.298,308.515,342.701,284.342,359.638,266.405z" fill="#ab05ab" data-original="#8e552b" class=""/>
<path xmlns="http://www.w3.org/2000/svg" style="" d="M44.119,303.298H17.027v93.818h91.758v-29.152C108.785,332.25,79.833,303.298,44.119,303.298z" fill="#ab05ab" data-original="#995f30" class=""/>
<rect xmlns="http://www.w3.org/2000/svg" x="17.03" y="303.3" style="" width="20.605" height="93.82" fill="#ab05ab" data-original="#8e552b" class=""/>
<path xmlns="http://www.w3.org/2000/svg" style="" d="M243.111,19.51H17.027C7.662,19.51,0,27.172,0,36.538v58.649c0,9.365,7.662,17.027,17.027,17.027  h226.084c9.365,0,17.027-7.662,17.027-17.027V36.538C260.138,27.172,252.476,19.51,243.111,19.51z" fill="#ab05ab" data-original="#a86d38" class=""/>
<path xmlns="http://www.w3.org/2000/svg" style="" d="M20.605,95.186V36.538c0-9.365,7.662-17.027,17.027-17.027H17.027C7.662,19.51,0,27.172,0,36.538  v58.649c0,9.365,7.662,17.027,17.027,17.027h20.605C28.267,112.214,20.605,104.552,20.605,95.186z" fill="#ab05ab" data-original="#995f30" class=""/>
<path xmlns="http://www.w3.org/2000/svg" style="" d="M0,76.268v18.919c0,9.365,7.662,17.027,17.027,17.027h226.084c9.365,0,17.027-7.662,17.027-17.027  V76.268H0z" fill="#545454" data-original="#b78046" class=""/>
<path xmlns="http://www.w3.org/2000/svg" style="" d="M20.605,95.186V76.268H0v18.919c0,9.365,7.661,17.027,17.027,17.027h20.605  C28.267,112.214,20.605,104.552,20.605,95.186z" fill="#ab05ab" data-original="#a86d38" class=""/>
<path xmlns="http://www.w3.org/2000/svg" style="" d="M0,445.969c0,20.712,0,14.85,0,38.185c0,4.604,3.732,8.336,8.337,8.336h142.898  c4.245,0,7.686-3.441,7.686-7.686v-6.915c0-5.48,6.409-7.893,12.267-3.988l18.195,12.13c6.317,4.211,13.74,6.459,21.333,6.459  h284.848c9.078,0,16.436-7.359,16.436-16.436v-30.085H0z" fill="#4d5370" data-original="#4d5370" class=""/>
<path xmlns="http://www.w3.org/2000/svg" style="" d="M20.605,484.153c0-23.938,0-16.97,0-38.185H0c0,20.712,0,14.85,0,38.185  c0,4.604,3.732,8.336,8.337,8.336h20.605C24.337,492.49,20.605,488.757,20.605,484.153z" fill="#444a63" data-original="#444a63" class=""/>
<path xmlns="http://www.w3.org/2000/svg" style="" d="M512,448.029v-9.727c0-12.556-10.179-22.734-22.734-22.734H233.663  c-23.767,0-29.428-20.512-53.715-20.512H8.928c-4.931,0-8.928,3.997-8.928,8.927c0,16.687,0,27.165,0,44.047h512V448.029z" fill="#616584" data-original="#616584"/>
<path xmlns="http://www.w3.org/2000/svg" style="" d="M20.605,403.983c0-4.93,3.997-8.927,8.928-8.927H8.927c-4.93,0-8.927,3.997-8.927,8.927  c0,16.687,0,27.165,0,44.047h20.605C20.605,430.818,20.605,420.787,20.605,403.983z" fill="#4d5370" data-original="#4d5370" class=""/>
<g xmlns="http://www.w3.org/2000/svg">
	<path style="" d="M253.147,168.658H204.8c-4.267,0-7.727-3.459-7.727-7.727s3.459-7.727,7.727-7.727h48.347   c4.267,0,7.727,3.459,7.727,7.727S257.414,168.658,253.147,168.658z" fill="#e1f1fb" data-original="#e1f1fb" class=""/>
	<path style="" d="M206.28,210.745c-4.003,0-7.39-3.087-7.697-7.143c-0.322-4.256,2.866-7.966,7.121-8.288l48.209-3.65   c4.265-0.321,7.966,2.866,8.288,7.121c0.322,4.256-2.866,7.966-7.121,8.288l-48.209,3.65   C206.673,210.738,206.476,210.745,206.28,210.745z" fill="#e1f1fb" data-original="#e1f1fb" class=""/>
	<path style="" d="M217.179,254.558c-1.868-3.837-0.271-8.462,3.566-10.33l42.848-20.858   c3.837-1.867,8.461-0.272,10.33,3.565c1.868,3.837,0.271,8.462-3.566,10.33l-42.848,20.858   C223.669,259.992,219.047,258.392,217.179,254.558z" fill="#e1f1fb" data-original="#e1f1fb" class=""/>
	<path style="" d="M260.019,297.327c-3.517-2.417-4.409-7.227-1.993-10.744l25.942-37.755   c2.417-3.517,7.228-4.409,10.745-1.993c3.517,2.417,4.409,7.227,1.993,10.744l-25.942,37.755   C268.348,298.85,263.539,299.745,260.019,297.327z" fill="#e1f1fb" data-original="#e1f1fb" class=""/>
</g>
<g xmlns="http://www.w3.org/2000/svg">
</g>
<g xmlns="http://www.w3.org/2000/svg">
</g>
<g xmlns="http://www.w3.org/2000/svg">
</g>
<g xmlns="http://www.w3.org/2000/svg">
</g>
<g xmlns="http://www.w3.org/2000/svg">
</g>
<g xmlns="http://www.w3.org/2000/svg">
</g>
<g xmlns="http://www.w3.org/2000/svg">
</g>
<g xmlns="http://www.w3.org/2000/svg">
</g>
<g xmlns="http://www.w3.org/2000/svg">
</g>
<g xmlns="http://www.w3.org/2000/svg">
</g>
<g xmlns="http://www.w3.org/2000/svg">
</g>
<g xmlns="http://www.w3.org/2000/svg">
</g>
<g xmlns="http://www.w3.org/2000/svg">
</g>
<g xmlns="http://www.w3.org/2000/svg">
</g>
<g xmlns="http://www.w3.org/2000/svg">
</g>
</g></svg>
