<?xml version="1.0" encoding="utf-8"?>
<!-- Generator: Adobe Illustrator 24.0.1, SVG Export Plug-In . SVG Version: 6.00 Build 0)  -->
<svg version="1.1" id="Layer_1" xmlns="http://www.w3.org/2000/svg" xmlns:xlink="http://www.w3.org/1999/xlink" x="0px" y="0px"
	 viewBox="0 0 400 400" style="enable-background:new 0 0 400 400;" xml:space="preserve">
<style type="text/css">
	.st0{fill:#222222;}
	.st1{opacity:0.35;fill:url(#SVGID_1_);enable-background:new    ;}
	.st2{fill:url(#SVGID_2_);}
	.st3{fill:url(#SVGID_3_);}
	.st4{fill:none;}
	.st5{fill:#72F29D;}
	.st6{font-family:'Impact';}
	.st7{font-size:60px;}
</style>
<rect x="1" class="st0" width="399" height="401"/>
<linearGradient id="SVGID_1_" gradientUnits="userSpaceOnUse" x1="205.709" y1="188.1369" x2="150.8437" y2="414.7542" gradientTransform="matrix(1 0 0 -1 0 402)">
	<stop  offset="0" style="stop-color:#FFFFFF"/>
	<stop  offset="1" style="stop-color:#000000"/>
</linearGradient>
<path class="st1" d="M1,141c12.5-16.6,33.1-38.5,64-49c59.2-20.1,100.5,20.8,157,12c32.1-5,74.9-26.9,119-104C227.7,0,114.3,0,1,0
	C1,47,1,94,1,141z"/>
<linearGradient id="SVGID_2_" gradientUnits="userSpaceOnUse" x1="-0.5" y1="67.1465" x2="399.5" y2="67.1465" gradientTransform="matrix(1 0 0 -1 0 402)">
	<stop  offset="0" style="stop-color:#FF8008"/>
	<stop  offset="1" style="stop-color:#FFC837"/>
</linearGradient>
<path class="st2" d="M-0.5,361.5c39.8-3,65.2-15.4,81-26c19.8-13.4,30-27.7,54-33c18.6-4.1,28.5,1.1,46,3c55.3,6.1,76.5-32.2,128-36
	c20.4-1.5,51.3,2,91,29c0,34,0,68,0,102c-133.3,0-266.7,0-400,0C-0.5,387.5-0.5,374.5-0.5,361.5z"/>
<linearGradient id="SVGID_3_" gradientUnits="userSpaceOnUse" x1="1" y1="348.5" x2="320" y2="348.5" gradientTransform="matrix(1 0 0 -1 0 402)">
	<stop  offset="0" style="stop-color:#FF8008"/>
	<stop  offset="1" style="stop-color:#FFC837"/>
</linearGradient>
<path class="st3" d="M1,107c20.2-14.1,50.6-30.8,89-34c50.5-4.3,73.8,18.1,113,15c30.2-2.4,71.2-20,117-88C213.7,0,107.3,0,1,0
	C1,35.7,1,71.3,1,107z"/>
<rect x="127.4" y="174.6" class="st4" width="145.3" height="50.8"/>
<text transform="matrix(1 0 0 1 23.9552 216.9409)" class="st5 st6 st7">F i t E x t r e m e</text>
</svg>
